<svg xmlns="http://www.w3.org/2000/svg" width="77" height="19" viewBox="0 0 77 19" fill="none"><path fill-rule="evenodd" clip-rule="evenodd" d="M67.3436 3.9604C70.2434 3.9604 72.6089 5.7706 72.6089 7.9905C72.6089 10.2106 70.2434 12.0208 67.3436 12.0208C64.4434 12.0208 62.0776 10.2106 62.0776 7.9905C62.0776 5.7706 64.4434 3.9604 67.3436 3.9604ZM67.3436 0.786201C72.5273 0.786201 76.7557 4.0225 76.7557 7.9905C76.7557 11.9584 72.5273 15.1944 67.3436 15.1944C62.1596 15.1944 57.9308 11.9584 57.9308 7.9905C57.9308 4.0225 62.1596 0.786201 67.3436 0.786201ZM51.6269 1.9504C50.2538 1.3486 48.3894 1.0779 46.1486 1.1003C43.6547 1.1255 40.7305 1.5456 38.257 2.9306V18.863H42.431C42.431 15.3988 42.431 8.2036 42.431 4.7391C44.8351 3.8099 46.6436 3.9882 47.6867 4.0205C50.1758 4.0979 51.9534 5.8032 52.2238 7.5911C52.4943 9.3786 51.2762 11.1477 49.4697 11.8751C47.4392 12.6917 45.538 12.5797 42.9529 11.0694V14.706C47.0237 16.1894 53.0842 15.11 55.2303 11.8586C56.0098 10.6774 56.5351 9.0104 56.2921 7.4952C55.7969 4.4066 53.5167 2.7784 51.6269 1.9504ZM21.0521 0.926502H25.2043V7.0703L31.5958 0.926502H36.6611L29.8256 7.3751L37.3133 15.11H32.1174L25.2043 7.9635V15.11H21.0521V0.926502ZM5.2909 1.9504C6.664 1.3486 8.5283 1.0779 10.7691 1.1003C13.2631 1.1255 16.1873 1.5456 18.6608 2.9306V15.11H14.4868C14.4868 11.6457 14.4868 8.2036 14.4868 4.7391C12.0827 3.8099 10.2742 3.9882 9.2311 4.0205C6.742 4.0979 4.9643 5.8032 4.6939 7.5911C4.4235 9.3786 5.6415 11.1477 7.4481 11.8751C9.4785 12.6917 11.3797 12.5797 13.9649 11.0694V14.706C9.8941 16.1894 3.8336 15.11 1.6875 11.8586C0.908 10.6774 0.382701 9.0104 0.625601 7.4952C1.1206 4.4066 3.401 2.7784 5.2909 1.9504Z" fill="#2D2C2B"></path></svg>