<?xml version="1.0" encoding="utf-8"?>
<!-- Generator: Adobe Illustrator 28.1.0, SVG Export Plug-In . SVG Version: 6.00 Build 0)  -->
<svg version="1.1" id="Layer_1" xmlns="http://www.w3.org/2000/svg" xmlns:xlink="http://www.w3.org/1999/xlink" x="0px" y="0px"
	 viewBox="0 0 85.7 32" style="enable-background:new 0 0 85.7 32;" xml:space="preserve">
<style type="text/css">
	.st0{fill:#FFFFFF;}
</style>
<g>
	<g>
		<g>
			<path class="st0" d="M30.6,2.1l-5.8,16.2h3.5l1.1-3.3h6l1,3.3h3.7L34.5,2.1C34.5,2.1,30.6,2.1,30.6,2.1z M30.4,12.2l2.1-6.4
				l2,6.4H30.4z M52.5,10.3c-0.6-0.5-1.5-0.9-2.8-1.2l-2.8-0.7c-1.1-0.3-1.8-0.5-2.1-0.7C44.3,7.5,44,7,44,6.5
				c0-0.6,0.3-1.1,0.8-1.5s1.2-0.5,2.1-0.5c0.8,0,1.4,0.1,2,0.4C49.7,5.3,50.1,6,50.2,7h3.3c-0.1-1.7-0.7-3-1.9-4
				c-1.2-0.9-2.7-1.4-4.4-1.4c-2.1,0-3.6,0.5-4.7,1.4c-1.1,1-1.6,2.2-1.6,3.6c0,1.6,0.5,2.8,1.6,3.5c0.7,0.4,1.8,0.9,3.5,1.3
				l1.7,0.4c1,0.2,1.7,0.5,2.2,0.8c0.5,0.3,0.7,0.7,0.7,1.3c0,0.9-0.5,1.5-1.4,1.9c-0.5,0.2-1.1,0.3-2,0.3c-1.3,0-2.3-0.3-2.8-1
				c-0.3-0.4-0.5-0.9-0.6-1.7h-3.2c0,1.7,0.6,3,1.8,4c1.2,1,2.9,1.5,5,1.5c2.1,0,3.7-0.5,4.8-1.5c1.1-1,1.7-2.2,1.7-3.7
				C54,12.2,53.5,11.1,52.5,10.3z M70,2.1h-4.4l-6.3,6.7V2.1H56v16.2h3.3v-5.4l1.6-1.7l5,7.1h4.4l-7-9.6L70,2.1z M82.3,3.5
				c-1.2-1.3-3-1.9-5.3-1.9c-2.3,0-4.1,0.6-5.3,1.9C70,5,69.2,7.2,69.2,10.2c0,2.9,0.8,5.2,2.5,6.7c1.2,1.3,3,1.9,5.3,1.9
				s4.1-0.6,5.3-1.9c1.6-1.5,2.5-3.8,2.5-6.7C84.8,7.3,84,5,82.3,3.5z M80.2,14.5c-0.8,1-1.9,1.5-3.2,1.5c-1.3,0-2.4-0.5-3.2-1.5
				c-0.8-1-1.2-2.4-1.2-4.2S73,7,73.8,6c0.8-1,1.9-1.5,3.2-1.5c1.3,0,2.4,0.5,3.2,1.5c0.8,1,1.2,2.4,1.2,4.2
				C81.4,12.1,81,13.5,80.2,14.5z M1.3,6.1h12.3c0,0,0,2-2,2H5.4c0,0-4.1,0-4.1,4.1v6.2h6.1c4.1,0,4.1-4.1,4.1-4.1H5.4v-2.1h8.2v6.1
				c4.1,0,4.1-4.1,4.1-4.1V1.9H5.4C1.3,1.9,1.3,6.1,1.3,6.1z"/>
		</g>
	</g>
	<g>
		<path class="st0" d="M1.3,23.6h2.4c1.4,0,2.6,0.5,2.6,2.1c0,1.8-1.3,2.1-2.9,2.1H2.6v2.9H1.3V23.6z M3.4,26.7c0.7,0,1.7,0,1.7-1
			c0-0.9-0.8-1-1.5-1H2.6v2H3.4L3.4,26.7z"/>
		<path class="st0" d="M8.3,23.6h2.5c1.4,0,2.7,0.4,2.7,2.1c0,1-0.6,1.8-1.7,1.9l1.9,3.2h-1.5l-1.7-3H9.5v3H8.3
			C8.3,30.8,8.3,23.6,8.3,23.6z M10.5,26.7c0.7,0,1.5-0.1,1.5-1c0-0.8-0.8-1-1.4-1H9.5v1.9H10.5L10.5,26.7z"/>
		<path class="st0" d="M18.8,23.5c2.2,0,3.8,1.5,3.8,3.8c0,2.2-1.6,3.7-3.8,3.8c-2.2,0-3.8-1.5-3.8-3.7C15,25,16.6,23.5,18.8,23.5z
			 M18.8,29.8c1.5,0,2.5-1.1,2.5-2.7c0-1.4-1-2.6-2.5-2.6c-1.5,0-2.4,1.1-2.4,2.6C16.3,28.7,17.3,29.8,18.8,29.8z"/>
		<path class="st0" d="M24.6,23.6h4.6v1.2h-3.3v1.9H29v1.2h-3.2v3h-1.3C24.6,30.8,24.6,23.6,24.6,23.6z"/>
		<path class="st0" d="M31.1,23.6h4.7v1.2h-3.5v1.8h3.3v1.2h-3.3v1.9H36v1.2h-4.9L31.1,23.6L31.1,23.6z"/>
		<path class="st0" d="M41.5,25.2c-0.3-0.4-0.8-0.6-1.3-0.6c-0.6,0-1.2,0.3-1.2,0.9c0,1.4,3.4,0.6,3.4,3.2c0,1.5-1.2,2.3-2.6,2.3
			c-0.9,0-1.8-0.3-2.3-1l1-0.9c0.3,0.5,0.8,0.7,1.4,0.7c0.6,0,1.3-0.3,1.3-1c0-1.6-3.4-0.7-3.4-3.2c0-1.5,1.3-2.2,2.6-2.2
			c0.7,0,1.5,0.2,2.1,0.7L41.5,25.2z"/>
		<path class="st0" d="M48.1,25.2c-0.3-0.4-0.8-0.6-1.3-0.6c-0.6,0-1.2,0.3-1.2,0.9c0,1.4,3.4,0.6,3.4,3.2c0,1.5-1.2,2.3-2.6,2.3
			c-0.9,0-1.8-0.3-2.3-1l1-0.9c0.3,0.5,0.8,0.7,1.4,0.7s1.3-0.3,1.3-1c0-1.6-3.4-0.7-3.4-3.2c0-1.5,1.3-2.2,2.6-2.2
			c0.7,0,1.5,0.2,2.1,0.7L48.1,25.2z"/>
		<path class="st0" d="M51.1,23.6h1.3v7.2h-1.3V23.6z"/>
		<path class="st0" d="M58.1,23.5c2.2,0,3.8,1.5,3.8,3.8c0,2.2-1.6,3.7-3.8,3.8c-2.2,0-3.8-1.5-3.8-3.7C54.3,25,55.9,23.5,58.1,23.5
			z M58.1,29.8c1.5,0,2.5-1.1,2.5-2.7c0-1.4-1-2.6-2.5-2.6c-1.5,0-2.4,1.1-2.4,2.6C55.7,28.7,56.7,29.8,58.1,29.8z"/>
		<path class="st0" d="M63.9,23.6h1.7l3.5,5.3l0,0h0l0,0v-5.3h1.3v7.2h-1.6l-3.5-5.5h0v5.5h-1.3V23.6z"/>
		<path class="st0" d="M75,23.6h1.1l3.1,7.2h-1.5l-0.7-1.6H74l-0.7,1.6h-1.4L75,23.6z M76.6,28.1l-1.1-2.9l-1.1,2.9H76.6z"/>
		<path class="st0" d="M80.7,23.6H82v6h3v1.2h-4.3L80.7,23.6L80.7,23.6z"/>
	</g>
</g>
</svg>
