<?xml version="1.0" encoding="UTF-8" standalone="no"?>
<!-- Generator: Adobe Illustrator 19.2.1, SVG Export Plug-In . SVG Version: 6.00 Build 0)  -->

<svg
   version="1.1"
   id="layer"
   x="0px"
   y="0px"
   viewBox="0 0 599.86395 174.075"
   xml:space="preserve"
   sodipodi:docname="chiq-logo-vector.svg"
   width="599.86395"
   height="174.075"
   xmlns:inkscape="http://www.inkscape.org/namespaces/inkscape"
   xmlns:sodipodi="http://sodipodi.sourceforge.net/DTD/sodipodi-0.dtd"
   xmlns="http://www.w3.org/2000/svg"
   xmlns:svg="http://www.w3.org/2000/svg"><defs
   id="defs5" /><sodipodi:namedview
   id="namedview5"
   pagecolor="#ffffff"
   bordercolor="#000000"
   borderopacity="0.25"
   inkscape:showpageshadow="2"
   inkscape:pageopacity="0.0"
   inkscape:pagecheckerboard="0"
   inkscape:deskcolor="#d1d1d1" />
<path
   d="m 599.86396,174.075 c -13.2,0 -24.2,0 -35.1,0 -2.9,-0.4 -5.6,-2 -7.3,-4.3 -8.8,-11.5 -17.5,-23.1 -25.8,-34.9 -5,-7 -3.9,-9.8 3.5,-14.7 5,-3.1 9.7,-6.8 13.9,-11 14.4,-14 14.8,-37 0.8,-51.4 -0.3,-0.3 -0.5,-0.6 -0.8,-0.8 -22,-21.7 -57,-22.7 -80.1,-2.3 -19.3,18.2 -18.2,44.1 3.2,60.6 2.2,2 4.7,3.6 7.4,4.7 13.5,4.1 20.4,14.8 26.7,25.9 1.6,3.2 2.2,6.8 1.6,10.3 0,1.1 -5.5,2 -8.4,1.8 -25.7,-0.7 -49.7,-12.6 -65.9,-32.5 -20.9,-24.9 -20.2,-61.4 1.6,-85.5 34.7,-39.9 102.5,-42.2 140.4,-4.9 24.7,22.8 28.2,60.6 8.2,87.6 -8.4,12.1 -10.2,9 0,23.8 3.9,5.6 8.4,10.9 12.1,16.7 1.8,3.4 3.1,7.1 4,10.9 z"
   id="path1"
   style="fill:#000000" />
<path
   d="m 179.66396,82.275 c 0,-20.4 0,-40.7 0,-61.2 0,-12.1 2.7,-14.3 14.6,-11.4 15.8,3.9 21.6,11.3 21.8,27.6 0,7.4 0,14.7 0,22.1 -0.7,3.7 1.7,7.2 5.4,7.9 0.7,0.1 1.3,0.1 2,0.1 18.2,0 36.4,0 54.5,0 6.8,0 6.9,-5.2 7,-9.8 0,-13.3 0,-26.5 0,-39.8 0,-8.2 1.8,-9.8 10,-9.1 16.8,1.3 26.1,10.8 26.1,27.5 0,37.1 0,74.2 0,111.2 0,9.5 -0.7,10.2 -9.9,10.4 -6.1,0 -11.8,0 -17.7,0 -5.9,0 -7.9,-2.5 -7.9,-8.1 0,-13 0,-26 0,-39 0,-10.8 -1.3,-12.1 -12.1,-12.1 h -45.8 c -10.8,0 -11.5,0.8 -11.5,12.1 0,12.1 0,24.5 0,36.8 -0.2,9 -1.1,9.9 -10.2,9.9 -5.4,0 -10.8,0 -16.2,0 -5.4,0 -9.3,-2.4 -9.5,-8.5 -0.2,-12.8 -0.4,-25.5 -0.5,-38.3 0,-9.6 0,-19.2 0,-28.7 z"
   id="path2"
   style="fill:#000000" />
<path
   d="m 87.763956,8.675 c 23.900004,-1 47.400004,7.1 65.500004,22.8 2.8,2.5 6.5,7.5 5.7,9.8 -2.1,3.7 -5.6,6.5 -9.7,7.6 -10.7,3.1 -22.2,2.2 -32.3,-2.5 -12.7,-6.1 -27.000004,-7.9 -40.800004,-5.3 -19.7,3 -35.4,18.2 -39.1,37.8 -2.2,14.4 4.5,28.7 16.9,36.4 18.1,13.7 42.5,15.7 62.600004,5 9.8,-5.2 21.3,-6.5 32.1,-3.6 2.1,0.6 4.2,1.5 6.1,2.6 6.1,3.8 7,7.7 1.8,12.9 -10.4,10.6 -23.6,18.1 -37.9,21.7 -38.700004,9.8 -74.100004,3.8 -101.700004,-27.1 -26.1000002,-29.1 -21.4000002,-71.3 9.4,-96.4 17.1,-14.4 38.9,-22.1 61.4,-21.7 z"
   id="path3"
   style="fill:#000000" />
<path
   d="m 387.36396,107.475 c 0,13.9 0,27.9 0,41.9 0,6.1 -2.3,8.5 -8.2,8.4 -5.9,-0.2 -13.8,0 -20.6,0 -3.3,0.4 -6.3,-2 -6.7,-5.3 -0.1,-0.5 -0.1,-1 0,-1.5 0,-29.2 0,-58.3 0,-87.4 0.3,-9.3 8.1,-16.6 17.4,-16.3 0.1,0 0.3,0 0.4,0 9.7,-0.1 17.6,7.6 17.8,17.3 0,0.1 0,0.3 0,0.4 0,14.2 0,28.4 0,42.4 z"
   id="path4"
   style="fill:#000000" />
<path
   d="m 369.56396,35.475 c -9.2,0.6 -17.2,-6.4 -17.8,-15.6 0,-0.5 0,-1.1 0,-1.6 -0.7,-9.3 6.3,-17.5 15.7,-18.2 0.7,-0.1 1.4,-0.1 2.1,0 9.5,-0.3 17.4,7.1 17.7,16.6 0,0.3 0,0.6 0,0.9 0.7,9.3 -6.2,17.5 -15.5,18.2 -0.9,0.1 -1.8,0.1 -2.6,0 z"
   id="path5"
   style="fill:#000000" />
</svg>
