<?xml version="1.0" encoding="UTF-8"?>
<svg xmlns="http://www.w3.org/2000/svg" width="175" height="37" viewBox="0 0 175 37" fill="none">
  <path d="M129.762 35.9612L131.235 27.6301H134.229C136.103 27.6301 136.775 28.4471 136.775 29.5539C136.775 29.7779 136.742 29.9558 136.713 30.1634L136.103 33.5926C135.846 35.0487 135.303 35.9645 132.869 35.9645H129.759L129.762 35.9612ZM135.804 30.1436C135.837 29.9361 135.866 29.7417 135.866 29.5671C135.866 28.7337 135.369 28.4306 134.12 28.4306H131.989L130.803 35.1607H132.934C134.535 35.1607 135.016 34.6171 135.224 33.4312L135.8 30.1469L135.804 30.1436Z" fill="#1E1E1E"></path>
  <path d="M139.874 27.6307H145.177L145.032 28.4312H140.641L140.16 31.1852H144.245L144.1 31.9857H140.015L139.455 35.158H143.86L143.731 35.9585H138.411L139.87 27.6274L139.874 27.6307Z" fill="#1E1E1E"></path>
  <path d="M146.234 35.6418L146.425 34.9039C147.258 35.1608 148.108 35.3223 149.004 35.3223C150.543 35.3223 150.928 35.0488 151.119 33.9749C151.168 33.685 151.215 33.4446 151.215 33.2535C151.215 32.6111 150.829 32.453 149.436 32.1499C147.673 31.7645 147.242 31.3 147.242 30.4205C147.242 30.1471 147.275 29.844 147.337 29.508C147.611 27.9696 148.217 27.4722 150.543 27.4722C151.152 27.4722 152.081 27.5677 152.931 27.8082L152.769 28.5625C152.032 28.3847 151.185 28.2727 150.51 28.2727C148.652 28.2727 148.428 28.4967 148.22 29.6661C148.171 29.9725 148.141 30.1635 148.141 30.3381C148.141 30.9146 148.477 31.0925 149.742 31.3791C151.584 31.7942 152.114 32.1335 152.114 33.1415C152.114 33.349 152.097 33.5599 152.018 33.9749C151.778 35.3354 151.363 36.1227 148.846 36.1227C148.013 36.1227 146.988 35.9317 146.234 35.6418Z" fill="#1E1E1E"></path>
  <path d="M155.919 27.6304H156.815L155.342 35.9614H154.446L155.919 27.6304Z" fill="#1E1E1E"></path>
  <path d="M158.501 34.3603C158.501 34.1199 158.518 33.9749 158.564 33.7048L159.236 29.8605C159.556 28.0651 160.406 27.4722 162.744 27.4722C163.433 27.4722 164.428 27.5842 165.179 27.8082L165.034 28.5461C164.217 28.3715 163.4 28.2727 162.646 28.2727C160.9 28.2727 160.356 28.6251 160.112 29.9725L159.457 33.6883C159.424 33.9123 159.394 34.1067 159.394 34.2813C159.394 35.0357 159.842 35.3223 161.318 35.3223C161.894 35.3223 162.695 35.2432 163.271 35.1147L163.802 32.2323H164.668L164.059 35.7077C163.163 35.9976 162.105 36.126 161.206 36.126C159.253 36.126 158.498 35.5496 158.498 34.3636L158.501 34.3603Z" fill="#1E1E1E"></path>
  <path d="M169.093 28.4935L167.779 35.9614H166.913L168.372 27.6304H169.604L172.598 35.1445L173.929 27.6304H174.809L173.336 35.9614H172.101L169.09 28.4935H169.093Z" fill="#1E1E1E"></path>
  <path d="M8.33986 22.1717H16.0121H16.2064L16.4041 22.1783L16.6017 22.1915L16.7994 22.2079L16.997 22.231L17.1947 22.2573L17.3923 22.287L17.5933 22.3232L17.7876 22.3661L17.9853 22.4122L18.1829 22.4649L18.3773 22.5209L18.5717 22.5802L18.7627 22.6461L18.9538 22.7185L19.1416 22.791L19.3293 22.8734L19.5138 22.959L19.6983 23.048L19.8762 23.1402L20.0541 23.239L20.2286 23.3411L20.3999 23.4465L20.5679 23.5586L20.736 23.6739L20.8974 23.7891L21.0555 23.911L21.2136 24.0362L21.3651 24.1647L21.5134 24.2965L21.655 24.4282L21.7967 24.5666L27.5813 30.3512L24.4288 28.7766L24.1487 28.6382L23.8622 28.513L23.569 28.3911L23.2725 28.2791L22.9727 28.177L22.6729 28.0815L22.3666 27.9925L22.0602 27.9168L21.7473 27.8476L21.4376 27.7883L21.1247 27.7389L20.8084 27.6961L20.4955 27.6664L20.1792 27.6434L19.8663 27.6302L19.5533 27.6236H11.8811L11.6835 27.6203L11.4858 27.617L11.2882 27.6038L11.0905 27.5874L10.8929 27.5643L10.6952 27.5379L10.4976 27.5083L10.2999 27.4721L10.1023 27.4292L9.90461 27.3831L9.71025 27.3304L9.5126 27.2744L9.32154 27.2151L9.12718 27.1492L8.93941 27.0768L8.74834 27.001L8.56057 26.9219L8.3761 26.8363L8.19492 26.7473L8.01374 26.6551L7.83585 26.5563L7.66126 26.4542L7.48996 26.3454L7.32195 26.2367L7.15724 26.1247L6.99253 26.0061L6.83441 25.8843L6.67958 25.7591L6.52805 25.6306L6.37981 25.4988L6.23487 25.3671L6.09321 25.2287L0.308594 19.4441L3.46115 21.0187L3.74445 21.1538L4.03104 21.2823L4.32093 21.4041L4.61741 21.5161L4.91718 21.6183L5.22025 21.7138L5.52332 21.7994L5.83297 21.8785L6.14263 21.9477L6.45558 22.007L6.76853 22.0564L7.08148 22.0959L7.39772 22.1289L7.71067 22.1519L8.02691 22.1651L8.33986 22.1717Z" fill="#1E1E1E"></path>
  <path d="M27.3677 26.8361L27.3446 26.5231L27.3117 26.2102L27.2722 25.8972L27.2195 25.5843L27.1602 25.2746L27.091 24.9617L27.0119 24.6553L26.9263 24.3523L26.8307 24.0492L26.7253 23.7494L26.6133 23.4529L26.4914 23.1598L26.363 22.8699L26.2246 22.5866L26.0797 22.3066L25.9248 22.0331L22.0904 15.392L21.9948 15.2207L21.9026 15.0428L21.8137 14.8682L21.728 14.6871L21.649 14.5059L21.5732 14.3214L21.5007 14.1336L21.4315 13.9426L21.3689 13.7515L21.3129 13.5604L21.2569 13.3628L21.2108 13.1651L21.1647 12.9675L21.1285 12.7698L21.0922 12.5689L21.0626 12.3679L21.0395 12.1637L21.0198 11.9628L21.0066 11.7585L20.9967 11.5576L20.9934 11.3533V11.1524L21 10.9481L21.0132 10.7472L21.0296 10.5463L21.0494 10.3486L21.0758 10.1509L21.1054 9.9533L21.1416 9.75564L21.1812 9.56458L21.224 9.37352L21.2734 9.18245L23.3916 1.27637L23.6024 4.79458L23.6255 5.10752L23.6584 5.42047L23.698 5.73342L23.7507 6.04637L23.81 6.35603L23.8791 6.66568L23.9549 6.97534L24.0438 7.2784L24.1394 7.58147L24.2415 7.88124L24.3568 8.17772L24.4787 8.47091L24.6071 8.7575L24.7455 9.0441L24.8905 9.32081L25.042 9.59752L28.8797 16.2419L28.9753 16.4132L29.0675 16.5845L29.1564 16.7624L29.2421 16.9403L29.3212 17.1248L29.3969 17.3093L29.4694 17.497L29.5353 17.6848L29.5979 17.8791L29.6572 18.0702L29.7099 18.2679L29.7593 18.4655L29.8021 18.6632L29.8416 18.8608L29.8779 19.0618L29.9042 19.2627L29.9306 19.4637L29.9471 19.6679L29.9635 19.8688L29.9701 20.0731L29.9767 20.2773L29.9734 20.4783L29.9668 20.6792L29.9569 20.8835L29.9405 21.0811L29.9207 21.2821L29.8943 21.4797L29.8647 21.6774L29.8285 21.8717L29.7889 22.0661L29.7461 22.2604L29.6967 22.4482L27.5785 30.351L27.3677 26.8361Z" fill="#1E1E1E"></path>
  <path d="M20.4526 3.21995L20.1924 3.39454L19.9387 3.58231L19.6884 3.77337L19.4446 3.97432L19.2041 4.18186L18.9703 4.39598L18.743 4.61669L18.5222 4.84399L18.3081 5.07788L18.1006 5.31836L17.8996 5.56542L17.7086 5.81578L17.5241 6.07273L17.3462 6.33297L17.1782 6.5998L17.0168 6.86993L13.179 13.5143L13.0802 13.6823L12.9748 13.8503L12.8661 14.0151L12.7541 14.1765L12.6355 14.3379L12.5136 14.496L12.3851 14.6508L12.2567 14.8057L12.1216 14.9539L11.9832 15.1021L11.8416 15.2471L11.6934 15.3854L11.5451 15.5238L11.3903 15.6589L11.2355 15.7873L11.074 15.9125L10.9126 16.0344L10.7479 16.153L10.5766 16.265L10.4053 16.3737L10.234 16.4791L10.0561 16.5812L9.87825 16.6768L9.70037 16.7657L9.51918 16.8547L9.33471 16.9337L9.15023 17.0128L8.96246 17.0853L8.77799 17.1511L8.59022 17.2137L8.40245 17.273L8.21139 17.3257L0.308594 19.4439L3.25032 17.5003L3.50726 17.3257L3.76421 17.1413L4.01457 16.9469L4.25834 16.7492L4.49882 16.5417L4.73271 16.3276L4.96001 16.1036L5.18072 15.8763L5.39484 15.6424L5.60238 15.4019L5.80332 15.1548L5.99439 14.9045L6.17886 14.6475L6.35675 14.3873L6.52475 14.1205L6.68617 13.8503L10.5206 7.20923L10.6227 7.03793L10.7249 6.87322L10.8369 6.70851L10.9489 6.5438L11.0675 6.38238L11.1893 6.22426L11.3145 6.06943L11.4463 5.91461L11.5814 5.76637L11.7197 5.61813L11.8614 5.47318L12.0063 5.33483L12.1578 5.19647L12.3094 5.0647L12.4675 4.93293L12.6256 4.80775L12.7903 4.68587L12.955 4.56728L13.123 4.45527L13.2943 4.34657L13.4689 4.24115L13.6435 4.14232L13.8214 4.0435L14.0026 3.95456L14.1838 3.86891L14.3682 3.78655L14.5527 3.70749L14.7372 3.63831L14.925 3.56913L15.1127 3.50654L15.3005 3.45054L15.4916 3.39454L23.3944 1.27637L20.4526 3.21995Z" fill="#1E1E1E"></path>
  <path d="M35.7397 21.1279C35.7397 20.7491 35.7727 20.4361 35.8649 19.9024L37.0278 13.3602C37.7822 9.14687 40.1408 8.23438 44.3541 8.23438C46.2087 8.23438 47.6878 8.45509 49.4173 8.9591L48.63 12.4806C47.0586 12.1677 45.2666 12.0095 44.0082 12.0095C42.4369 12.0095 41.7121 12.418 41.4618 13.8642L40.457 19.5236C40.4241 19.774 40.3945 19.965 40.3945 20.1528C40.3945 21.0949 40.8985 21.4408 42.3446 21.4408C43.5404 21.4408 45.0492 21.4079 46.9664 21.062L47.1542 24.6461C45.2995 25.0546 43.4745 25.2127 41.7154 25.2127C37.5647 25.2127 35.7397 23.7336 35.7397 21.1246V21.1279Z" fill="#1E1E1E"></path>
  <path d="M122.173 8.23413C117.077 8.23413 114.751 9.74288 114.089 13.518L112.989 19.6815C112.926 19.9977 112.897 20.3436 112.897 20.6566C112.897 23.1108 114.689 25.2158 119.185 25.2158C124.97 25.2158 126.67 23.2656 127.236 19.9318L128.304 13.7684C128.366 13.4521 128.399 13.1063 128.399 12.8559C128.399 10.3721 126.512 8.23413 122.173 8.23413ZM123.777 13.9265L122.773 19.6189C122.552 20.9102 121.61 21.4439 119.818 21.4439C117.868 21.4439 117.334 20.7818 117.555 19.4608L118.563 13.8013C118.783 12.5133 119.693 12.0093 121.488 12.0093C123.092 12.0093 123.817 12.5429 123.817 13.518C123.817 13.6103 123.817 13.7684 123.784 13.9265H123.777Z" fill="#1E1E1E"></path>
  <path d="M101.28 16.5347L107.097 8.54956H112.661L106.152 16.6599L110.023 24.902H104.989L101.28 16.5347Z" fill="#1E1E1E"></path>
  <path d="M97.5991 8.54956H102.125L99.233 24.902H94.7068L97.5991 8.54956Z" fill="#1E1E1E"></path>
  <path d="M87.2812 8.54956H79.3883L76.496 24.902H81.0255L81.7799 20.4976H84.8303L86.9682 24.902H91.9359L89.294 19.5555C91.1189 18.4849 91.6855 17.4801 91.9985 15.6255L92.3773 13.4876C92.5025 12.7958 92.5025 12.4499 92.5025 12.0414C92.5025 9.80795 91.1189 8.54956 87.2812 8.54956ZM87.9104 13.6128L87.5941 15.4674C87.436 16.3469 86.9979 16.9465 85.7692 16.9465H82.4025L83.2524 12.1995H86.6487C87.5908 12.1995 87.9697 12.4499 87.9697 13.0494C87.9697 13.2076 87.94 13.4283 87.9071 13.616L87.9104 13.6128Z" fill="#1E1E1E"></path>
  <path d="M53.3513 8.54956H57.8808L54.9885 24.902H50.459L53.3513 8.54956Z" fill="#1E1E1E"></path>
  <path d="M71.6721 8.54956H65.8216L57.8661 24.902H62.4879L63.5881 22.4182H69.3431L69.6264 24.902H73.9649L71.6688 8.54956H71.6721ZM65.2253 18.9263L68.3054 12.0381L68.9676 18.9263H65.2253Z" fill="#1E1E1E"></path>
  <path d="M133.855 0.374023C132.353 0.374023 131.131 1.59617 131.131 3.09833C131.131 4.60049 132.353 5.82264 133.855 5.82264C135.358 5.82264 136.58 4.60049 136.58 3.09833C136.58 1.59617 135.358 0.374023 133.855 0.374023ZM133.855 5.46027C132.554 5.46027 131.493 4.39954 131.493 3.09833C131.493 1.79712 132.554 0.736386 133.855 0.736386C135.157 0.736386 136.217 1.79383 136.217 3.09833C136.217 4.40283 135.157 5.46027 133.855 5.46027Z" fill="#1E1E1E"></path>
  <path d="M134.268 3.23682C134.469 3.194 134.63 3.10176 134.749 2.96011C134.868 2.81846 134.927 2.64057 134.927 2.42645C134.927 2.1695 134.845 1.96526 134.68 1.81373C134.515 1.66219 134.298 1.58643 134.031 1.58643H132.871V4.60721H133.194V3.26647H133.919L134.607 4.60721H134.986L134.268 3.23682ZM133.194 2.98317V1.87302H134.001C134.182 1.87302 134.327 1.92243 134.439 2.01797C134.551 2.1135 134.604 2.25185 134.604 2.42974C134.604 2.60763 134.548 2.74269 134.439 2.83822C134.331 2.93376 134.186 2.97987 134.001 2.97987H133.194V2.98317Z" fill="#1E1E1E"></path>
</svg>
