<?xml version="1.0" encoding="UTF-8"?>
<!-- Created with Inkscape by VulcanSphere (https://www.inkscape.org/ and https://vulcansphere.com) -->
<svg id="faber-logo" width="156" height="60" version="1.1" viewBox="0 0 156 60" xmlns="http://www.w3.org/2000/svg">
<title id="title1">Faber and Faber</title>
<desc id="desc1">British independent publishing house</desc>
 <g id="g2" clip-path="url(#aua)" fill="#080808">
  <path id="path1" d="M150.225 20.72c-4.32 0-8.152 3-9.685 6.629h-.279v-6.21l-.627-.418-12.263 4.744v.768l5.226 1.465v27.837l-5.644 2.72v.768h20.346v-.767l-7.038-3.14V35.581c0-4.883 2.439-8.302 5.505-9.418 1.115 1.953 2.857 3.21 5.086 3.21 2.648 0 4.32-1.675 4.32-4.326 0-2.652-1.811-4.326-4.947-4.326zM110.579 23.79c5.504 0 8.082 5.582 7.873 12.07h-17.419c.906-7.604 5.086-12.07 9.546-12.07zm15.12 15.07c1.393-11.023-3.275-18.348-14.006-18.348-8.222 0-18.394 6.209-18.394 21.558 0 11.093 6.967 17.93 17.489 17.93 5.992 0 10.033-2.233 12.333-4.465l.905-4.744h-1.114c-2.3 2.442-5.226 4.256-9.407 4.256-7.943 0-12.612-7.256-12.612-16.186v-.07h24.806v.07zM70.862 56.651c-2.16 0-4.18-.628-5.922-1.465V29.651c2.299-2.232 4.947-3.698 7.664-3.698 5.087 0 9.685 3.838 9.685 12.42.07 11.371-5.086 18.278-11.427 18.278zm6.48-36.14c-5.365 0-9.546 3.07-12.402 5.93V8.373c0-3.698.557-5.93 1.184-7.953L65.497 0l-13.03 4.535v.767l4.878 1.605v51.767l12.612.28c11.705 0 20.554-8.303 20.554-22.396 0-10.116-6.2-16.046-13.169-16.046zM42.016 44.023c0 7.884-4.18 10.535-8.292 10.535-3.205 0-5.435-2.442-5.435-6.07 0-3.348 2.09-6.279 5.365-7.674l8.362-.907v4.116zm7.595 11.442V32.93c0-8.72-4.6-12.418-14.006-12.418-3.483 0-7.316.697-9.406 1.325l-1.812 9.07h.976c2.648-4.535 6.27-7.186 10.382-7.186 4.11 0 6.201 3 6.201 8.512v4.744l-6.62.558c-8.988.767-14.144 6.14-14.144 12.558 0 5.93 4.39 9.977 9.546 9.977s8.919-3 10.94-7.814h.278v6.767h13.1v-.767l-5.435-2.79z"/>
  <path id="path2" d="M19.65 0C12.123 0 5.713 4.744 5.713 17.233v4.325l-5.505 2.93v1.186h5.505v29.86L0 58.187v.767h20.346v-.767l-7.037-3.07V25.674h7.803l.837-4.116h-8.64c0-3.558-2.16-7.604-2.16-11.232 0-4.396 2.926-6.419 6.061-6.768.627 4.535 2.787 7.186 5.853 7.186 2.788 0 4.46-1.814 4.46-4.535C27.523 2.86 24.945 0 19.649 0z"/>
 </g>
</svg>
