<?xml version="1.0" encoding="UTF-8"?>
<svg xmlns="http://www.w3.org/2000/svg" version="1.1" viewBox="0 0 189.9 60.4">
  <defs>
    <style>
      .cls-1 {
        fill: none;
      }

      .cls-2 {
        fill: #1d1d1b;
      }
    </style>
  </defs>
  <!-- Generator: Adobe Illustrator 28.7.1, SVG Export Plug-In . SVG Version: 1.2.0 Build 142)  -->
  <g>
    <g id="Warstwa_1">
      <rect class="cls-1" x="0" y="0" width="189.9" height="60.4"/>
      <g>
        <g>
          <path class="cls-2" d="M31.2,15.5c1.7,0,3.4.3,4.9.8,0,0,0,0,0,0,0-2.7-2.2-4.9-5-4.9s-5,2.2-5,4.9,0,0,0,0c1.6-.6,3.2-.9,5-.9Z"/>
          <path class="cls-2" d="M16.7,27.6c.6-3.4,2.4-6.4,4.9-8.6,0,0,0,0,0,0-2.4-1.4-5.4-.5-6.8,1.8-1.4,2.4-.5,5.4,1.8,6.8,0,0,0,0,0,0Z"/>
          <path class="cls-2" d="M16.8,32.9s0,0,0,0c-2.4,1.4-3.2,4.4-1.8,6.8,1.4,2.4,4.4,3.2,6.8,1.8,0,0,0,0,0,0-2.5-2.1-4.3-5.1-5-8.6Z"/>
          <path class="cls-2" d="M31.2,44.9c-1.8,0-3.4-.3-5-.9,0,0,0,0,0,0,0,2.7,2.2,4.9,5,4.9s5-2.2,5-4.9,0,0,0,0c-1.5.5-3.2.8-4.9.8Z"/>
          <path class="cls-2" d="M45.7,32.8s0,0,0,0c-.6,3.4-2.4,6.4-4.9,8.6,0,0,0,0,0,0,2.4,1.4,5.4.5,6.8-1.8,1.4-2.4.5-5.4-1.8-6.8Z"/>
          <path class="cls-2" d="M47.5,20.7c-1.4-2.4-4.4-3.2-6.8-1.8,0,0,0,0,0,0,2.5,2.1,4.3,5.1,5,8.6,0,0,0,0,0,0,2.4-1.4,3.2-4.4,1.8-6.8Z"/>
        </g>
        <g>
          <path class="cls-2" d="M72.9,21.6h4v17.2c0,1.6-.4,3-1.1,4.2-.7,1.2-1.7,2.2-3,2.8-1.3.7-2.8,1-4.5,1s-3.8-.5-5.3-1.5c-1.5-1-2.5-2.4-3.2-4.3l3.6-1.5c.4,1.1,1,2,1.8,2.6.8.6,1.9.9,3.1.9s2.5-.4,3.3-1.1c.8-.7,1.2-1.8,1.2-3.1v-2c-1.2,1.3-2.8,1.9-4.8,1.9s-3-.4-4.3-1.2c-1.3-.8-2.4-1.9-3.1-3.2-.7-1.3-1.1-2.8-1.1-4.3s.4-3,1.2-4.4c.8-1.4,1.9-2.4,3.2-3.2,1.3-.8,2.8-1.2,4.3-1.2s3.6.7,4.8,2v-1.6ZM68.5,35c.9,0,1.8-.2,2.6-.7.8-.5,1.4-1.1,1.9-1.9v-4.7c-.5-.8-1.1-1.4-1.8-1.9-.8-.5-1.6-.7-2.5-.7s-1.7.2-2.5.7c-.7.4-1.4,1-1.8,1.8-.5.8-.7,1.6-.7,2.6s.2,1.7.6,2.5c.4.7,1,1.3,1.8,1.8.7.4,1.6.6,2.5.6Z"/>
          <path class="cls-2" d="M85.2,38.8h-4s0-22.9,0-22.9h4v22.9Z"/>
          <path class="cls-2" d="M97.4,39.1c-1.6,0-3.1-.4-4.5-1.2-1.4-.8-2.5-1.9-3.3-3.3-.8-1.4-1.2-2.9-1.2-4.5s.4-3.1,1.2-4.5c.8-1.4,1.9-2.4,3.3-3.2,1.4-.8,2.9-1.2,4.5-1.2s3.1.4,4.5,1.2c1.4.8,2.5,1.9,3.3,3.3.8,1.4,1.2,2.8,1.2,4.4s-.4,3.1-1.2,4.5c-.8,1.4-1.9,2.5-3.3,3.3-1.4.8-2.9,1.2-4.5,1.2ZM97.4,35.3c.9,0,1.7-.2,2.5-.7.8-.5,1.4-1.1,1.8-1.9.5-.8.7-1.6.7-2.6s-.2-1.7-.7-2.5c-.5-.8-1.1-1.4-1.8-1.9-.8-.5-1.6-.7-2.5-.7s-1.7.2-2.5.7c-.7.5-1.4,1.1-1.8,1.9-.5.8-.7,1.6-.7,2.5s.2,1.8.6,2.6c.5.8,1.1,1.4,1.8,1.9.8.5,1.6.7,2.5.7Z"/>
          <path class="cls-2" d="M118.2,21.2c1.6,0,3,.4,4.4,1.2,1.3.8,2.4,1.9,3.2,3.3.8,1.4,1.2,2.8,1.2,4.5s-.4,3.1-1.2,4.5c-.8,1.4-1.9,2.5-3.2,3.3-1.3.8-2.8,1.2-4.4,1.2s-3.5-.7-4.7-2v1.6h-4V15.9h4v7.3c1.2-1.3,2.7-1.9,4.6-1.9ZM117.9,35.3c.9,0,1.7-.2,2.5-.7.8-.5,1.4-1.1,1.8-1.9.5-.8.7-1.6.7-2.6s-.2-1.8-.7-2.6c-.5-.8-1.1-1.4-1.8-1.9-.7-.5-1.6-.7-2.5-.7s-1.8.2-2.6.7c-.8.5-1.4,1.1-1.8,1.9v5c.5.8,1.1,1.4,1.8,1.9.8.5,1.6.7,2.5.7Z"/>
          <path class="cls-2" d="M142.3,21.6h4v17.2h-4v-1.6c-1.1,1.3-2.7,2-4.7,2s-3-.4-4.4-1.2c-1.3-.8-2.4-1.9-3.2-3.3-.8-1.4-1.2-2.9-1.2-4.5s.4-3.1,1.2-4.5c.8-1.4,1.9-2.5,3.2-3.3,1.3-.8,2.8-1.2,4.4-1.2s3.6.7,4.7,2v-1.6ZM137.9,35.3c.9,0,1.7-.2,2.5-.7.8-.5,1.4-1.1,1.8-1.9v-5c-.5-.8-1.1-1.4-1.8-1.9-.7-.5-1.6-.7-2.5-.7s-1.7.2-2.5.7c-.7.5-1.4,1.1-1.8,1.9-.5.8-.7,1.6-.7,2.6s.2,1.8.7,2.6c.5.8,1.1,1.4,1.8,1.9.8.5,1.6.7,2.5.7Z"/>
          <path class="cls-2" d="M154.5,38.8h-4V15.9h4v22.9Z"/>
          <path class="cls-2" d="M166.7,39.1c-1.6,0-3.1-.4-4.5-1.2-1.4-.8-2.5-1.9-3.3-3.3-.8-1.4-1.2-2.9-1.2-4.5s.4-3.1,1.2-4.5c.8-1.4,1.9-2.4,3.3-3.2,1.4-.8,2.9-1.2,4.5-1.2s3.1.4,4.5,1.2c1.4.8,2.5,1.9,3.3,3.3.8,1.4,1.2,2.8,1.2,4.4s-.4,3.1-1.2,4.5c-.8,1.4-1.9,2.5-3.3,3.3-1.4.8-2.9,1.2-4.5,1.2ZM166.7,35.3c.9,0,1.7-.2,2.5-.7.8-.5,1.4-1.1,1.8-1.9.5-.8.7-1.6.7-2.6s-.2-1.7-.7-2.5c-.5-.8-1.1-1.4-1.8-1.9-.8-.5-1.6-.7-2.5-.7s-1.7.2-2.5.7c-.7.5-1.4,1.1-1.8,1.9-.5.8-.7,1.6-.7,2.5s.2,1.8.6,2.6c.5.8,1.1,1.4,1.8,1.9.8.5,1.6.7,2.5.7Z"/>
        </g>
      </g>
    </g>
  </g>
</svg>