<?xml version="1.0" encoding="UTF-8"?><svg id="Layer_1" xmlns="http://www.w3.org/2000/svg" width="344.53" height="64.14" viewBox="0 0 344.53 64.14">
<title>Hotpoint-logo - brandlogos.net</title><path d="M17.93,14.18v-.47c0-4.09,3.98-7.81,8.12-7.81,4.51,0,8.28,3.61,8.28,8.12v.94c0,3.48-3.91,7.34-7.5,7.34h-1.41c-3.99,0-7.5-3.94-7.5-8.12h0ZM.28,4.34v43.42c0,2.16,1.99,4.22,4.06,4.22h43.58c2.2,0,4.06-2.2,4.06-4.53V4.66c0-2.7-2.21-4.37-5-4.37H4.5C2.43.28.28,2.31.28,4.34H.28ZM82.6,29.65h19.53l.16,17.34c.04,1.73,1.8,2.66,3.59,2.66h.78c1.74,0,3.59-1.29,3.59-3.12V6.22c0-2.46-1.49-3.59-3.91-3.59-4.61,0-4.22,3.12-4.22,7.65v11.87l-19.53.16V5.59c-.04-1.93-1.91-2.97-3.91-2.97-1.73,0-4.06,1.09-4.06,2.66v41.24c0,2.03,1.44,3.12,3.44,3.12h.78c4.59,0,3.75-3.75,3.75-8.12v-11.87h0ZM194.13,23.09c0-.77,3.45-.94,4.37-.94h4.22c5.96,0,8.12,4.36,8.12,10.47v.62c0,6.49-2.43,10.47-8.9,10.47h-3.44c-1,0-4.37-.1-4.37-.94v-19.68h0ZM200.38,49.96c11.47,0,18.59-5.37,18.59-16.71v-1.09c0-9.99-6.3-16.56-16.24-16.56h-2.03c-6.41,0-14.53.42-14.53,6.72v38.89c0,1.73,2.05,2.66,3.9,2.66h.16c2.01,0,3.9-1.01,3.9-2.97v-11.71l6.08.91.17-.13h0ZM232.4,34.18v-3.44c0-5.36,2.79-9.53,8.12-9.53h2.19c6.59,0,8.44,4.77,8.44,11.4v.31c0,3.18-.51,6.24-1.92,8.08-.74.96-1.52,1.77-2.72,2.28-1.89.8-2.14.42-4.24.76-2.82.46-6.03-.72-7.49-2.26-1.55-1.62-2.38-4.5-2.38-7.62h0ZM224.44,31.99v1.87c0,10.74,6.5,16.56,17.34,16.56,11.59,0,17.34-6.22,17.34-17.81v-1.25c0-4.88-2.09-9.82-4.57-12.3-2.8-2.8-7.2-4.26-12.77-4.26-11.26,0-17.34,5.96-17.34,17.18h0ZM125.4,34.02v-2.66c0-5.95,2.59-10.15,8.59-10.15h2.19c5.22,0,7.97,4.11,7.97,9.37v4.37c0,5.8-3.46,9.22-9.37,9.22-6.51,0-9.37-3.7-9.37-10.15h0ZM117.44,31.37v1.56c0,11.29,6.01,17.5,17.34,17.5h.47c10.91,0,16.87-6.23,16.87-17.18v-2.19c0-10.11-6.48-16.25-16.71-16.25h-.47c-5.66,0-9.9,1.39-12.77,4.26-2.72,2.72-4.73,6.99-4.73,12.3h0ZM287.07,49.64c3.59,0,3.91-1.84,3.91-5.31v-9.22c0-6.72-1.41-12.81,5.47-12.81h4.69c7.16,0,5.78,5.97,5.78,12.96v9.37c0,3.72.47,5,4.22,5h.31c1.45,0,3.44-1.08,3.44-2.5v-20.62c0-3.58-1.78-6.56-3.71-8.32-1.78-1.62-5.83-2.61-9.26-2.61h-6.56c-8.5,0-12.5,4.53-12.5,13.12v17.65c0,2.23,1.68,3.28,3.9,3.28h.31ZM167.58,39.65l-.16-17.5h10.63c1.27-.11,1.87-1.42,1.87-2.81v-.47c0-1.46-1.02-2.66-2.5-2.66h-10V6.69c0-2-1.69-2.97-3.75-2.97h-.31c-2.13,0-3.91,1.09-3.91,3.28v33.9c0,6.27,5.24,8.9,11.71,8.9h6.87c1.48,0,2.5-1.2,2.5-2.66v-.47c0-6.88-12.96,1.28-12.96-7.03h0ZM331.28,39.49c-.44-.69-.16-12.01-.16-13.9,0-4.25-.71-3.44,3.59-3.44h7.03c1.23-.1,1.87-1.28,1.87-2.66v-.47c0-1.39-.61-2.4-1.72-2.66l-10.62-.16-.16-9.84c-.04-1.81-1.83-2.66-3.75-2.66h-.47c-2.13,0-3.75,1.25-3.75,3.44v32.49c0,7.3,4.42,10.15,11.71,10.15h6.72c1.6,0,2.65-.93,2.65-2.5v-1.09c0-3.28-4.23-2.29-7.5-2.34-3.25-.05-5.46-1.09-5.46-4.38h0ZM266.3,45.89c0,2.17,1.25,3.75,3.28,3.75h1.56c1.44,0,3.28-1.29,3.28-2.66v-28.43c0-1.73-1.64-2.97-3.28-2.97h-1.09c-2.29,0-3.75,1.28-3.75,3.59v26.71h0ZM265.36,5.59c0,2.76,2.3,5.16,5,5.16,2.49,0,5-2.17,5-4.53v-1.09c0-2.5-2.53-4.53-5.15-4.53s-4.84,2.49-4.84,5h0ZM331.28,39.49v-17.18l10.47-.16h-7.03c-4.3,0-3.59-.81-3.59,3.44,0,1.9-.28,13.21.16,13.9h0ZM102.13,22.15h-19.37l-.16-16.56v16.72l19.53-.16h0ZM167.58,39.65v-17.33l10.47-.16h-10.63l.16,17.5h0ZM331.28,16.22l10.62.16-10.62-.16-.16-9.84.16,9.84h0ZM102.13,29.65l.16,17.34-.16-17.34h-19.53,19.53Z" style="fill:#1d1d1b; fill-rule:evenodd; stroke:#1d1d1b; stroke-miterlimit:22.93; stroke-width:.57px;"/></svg>