<svg xmlns="http://www.w3.org/2000/svg" width="800" height="450"><path d="M409.856 156.725h31.576v18.095h-31.576v-18.095Zm-161.086 0h31.576v18.095H248.77v-18.095Zm40.653 28.79h34.033l28.251 56.681 27.022-56.681h20.851l-39.815 76.304h-30.558l-39.785-76.304Zm120.433 0h31.576v76.304h-31.576v-76.304Zm-161.086 0h31.576v76.304H248.77v-76.304Zm510.731.21v88.647c0 19.323-8.298 19.323-20.971 19.323h-87.718v-15.818h70.552c7.639 0 7.969-2.996 7.969-7.43v-8.628h-61.205c-12.583 0-19.593-4.314-19.593-18.514v-40.923c0-19.323 11.354-16.867 24.955-16.867h86.25l-.24.21Zm-30.198 62.942v-51.229h-39.545c-5.782 0-12.163 0-12.163 9.677V239.8c0 8.988 9.287 8.988 11.534 8.988l40.174-.12Zm-644.945 1.228h28.91s9.497 0 9.497-8.838v-33.823c0-9.677-6.411-9.677-12.193-9.677H70.787v96.137H40.259v-108.18h86.61c13.601 0 24.955-2.457 24.955 16.867v40.803c0 14.2-7.01 18.514-19.593 18.514H84.298l.06-11.804Zm545.842-3.714v15.638h-88.497c-12.583 0-19.593-4.314-19.593-18.514v-38.946c0-19.323 11.354-18.904 24.955-18.904h56.112c18.155 0 26.963-1.228 26.963 16.867v29h-78.97v5.992c0 8.838 9.317 8.838 11.564 8.838l67.466.03Zm-30.138-25.046v-17.526c0-7.4-3.475-7.4-9.677-7.4h-26.963c-5.782 0-12.193-1.228-12.193 8.418v16.417l48.832.09Zm-401.023 40.654v-54.554c0-9.677 6.411-9.677 12.163-9.677h24.596v-11.983h-41.433c-13.631 0-24.955-2.487-24.955 16.837v59.378h29.629Zm292.993-105.484v83.884c0 9.677 6.411 9.677 12.163 9.677h7.07v11.983h-24.836c-13.631 0-24.955 2.457-24.955-16.867v-88.677h30.558Z" style="fill:#c71532"/></svg>